<svg xmlns="http://www.w3.org/2000/svg" version="1.1" xmlns:xlink="http://www.w3.org/1999/xlink" xmlns:svgjs="http://svgjs.dev/svgjs" width="2000" height="2250" viewBox="0 0 2000 2250"><g transform="matrix(1,0,0,1,6.821210263296962e-13,0)"><svg viewBox="0 0 320 360" data-background-color="#ffffff" preserveAspectRatio="xMidYMid meet" height="2250" width="2000" xmlns="http://www.w3.org/2000/svg" xmlns:xlink="http://www.w3.org/1999/xlink">
<g id="tight-bounds" transform="matrix(1,0,0,1,-5.684341886080802e-14,0)"><svg viewBox="0 0 320 360" height="360" width="320"><rect width="320.00000000000017" height="360" fill="#ffffff" mask="url(#8e1e2458-bdc6-4c07-9b2c-cf66f6645543)" data-fill-palette-color="tertiary">
</rect><g><svg></svg></g><g>
<svg viewBox="0 0 320 360" height="360" width="320"><g><path d="M20.961 227.22l3.726 4.658-1.863-6.056c-0.466-2.795-3.726 0.466-1.863 1.398M25.153 224.425c1.397 2.329 2.795 4.658 2.795 6.987 0 3.261 2.795 4.658 5.123 5.589-3.261-3.726-5.124-13.974-7.918-12.576M204.017 26.929c7.918 0 15.371-0.932 23.756 0.931 20.495 5.124 37.729 15.371 49.374 29.811l32.606 52.169c1.397 13.042 4.192 27.482 3.726 43.319 3.261 0 2.795-4.658 6.521-5.59-3.726 9.316-5.59 20.961-6.521 34.469-2.329-7.453 0-18.632 0.466-24.687-3.261 5.124-5.124 1.397-5.124-0.932 0.466-3.726-1.397-3.261-2.795-4.658-5.124-4.658-8.384-9.782-12.11-17.7 2.329-6.055 2.795-14.905-4.658-19.563-2.329-1.397-5.124-3.726-6.521-7.453-1.863-5.124-5.124-11.179-4.193-19.097 0.466-2.329-6.987 5.124-11.179 1.863-18.166-12.576-36.332-27.016-58.224-39.127-11.645 0-20.029-4.192-24.221-9.316-3.726-4.658-0.932-10.713 4.658-11.179 3.261 0 6.987-0.932 9.782 0.932 0.466-1.863 2.329-4.192 4.657-4.192M157.904 16.215l0.932 0.466c4.658 0.932 6.987 7.453 12.11 5.124 0 3.261 0.466 6.521-0.466 8.85-1.397 3.726-5.59 3.726-8.85 3.726-31.208-1.863-49.374 11.179-68.471 22.358-5.124 3.261-10.713 5.59-14.906 9.782-20.029 18.632-41.921 35.866-47.045 70.335l-4.192 38.195c-0.466 4.192-5.124 8.384-4.192 13.508l3.26 22.824c-3.261-3.261-5.124 0.932-4.192 2.795 0.466 1.397 2.329 6.055 5.124 1.863 3.726 6.987 7.453 20.495 12.576 26.55 15.837 18.632 36.332 35.4 53.101 52.169 4.192-0.932 7.453-0.932 8.384-3.727 1.397 2.795-1.397 5.59-3.726 6.056 7.453 4.658 15.837 8.85 27.016 9.781 14.44 0.932 27.948 3.261 40.524 6.522 6.521-1.863 13.042-2.795 20.029-3.261 2.329 0 3.726-3.726 6.521-4.658l0.466-4.658c2.795 4.192 2.329-1.397 0.466-4.192 3.261 2.795 4.192 5.124 5.589 6.987 0-1.397 3.726-6.521 3.727-0.466l0.931-6.055c1.397-0.932 1.863 5.124 3.261 0.931 1.397-4.192 4.192-0.932 6.987-2.329-0.932 1.863-0.466 5.59 2.794 3.261l3.727-3.261c2.329 5.59 6.055 3.261 7.918 2.329 20.495-13.042 40.99-28.413 60.553-43.784l-0.466 6.055 2.329-7.453c2.329 2.329 4.192 0.466 5.124-0.931 2.795-4.658 6.521-9.316 12.577-13.508-7.453 20.029-16.303 35.866-27.482 48.908l-4.658 5.59c0 3.261-0.932 7.453-4.658 7.918-1.863 0.466-5.59-0.932-8.384 1.863-1.397 1.863 3.261 5.59-0.466 2.795-3.261-2.329-6.521 0-10.248 0.932-2.795 0.932 1.863 3.726 2.795 5.589 0.932 1.863 1.863 3.726 1.398 6.056l-5.124-5.59c-6.055 3.261-9.782 9.316-14.906 13.974-2.329 1.863-1.397 5.124-1.397 7.918-3.261 0-6.987-0.932-8.85 0.932-1.397 1.863-0.932 4.658-0.932 7.453-4.658-0.466-5.124-7.453-9.315-6.056-4.192 0.932-8.85 1.397-12.577 3.727 2.795 5.59-4.658 2.329-3.726 3.26-6.987-4.192-13.042-7.453-20.495-4.658-15.837-5.124-35.4-2.795-49.84-0.931 0-2.329 0.466-4.658-0.466-5.124-0.932 2.329-3.726 1.397-3.26 1.397-8.85-6.055-17.7-9.782-27.016-14.905-8.384 0.932-16.303-3.261-18.632-5.59-6.521-6.055-13.974-2.795-20.029-4.192-13.042-3.261-17.7-16.769-19.098-26.084-0.932-4.658-4.658-6.521-6.055-6.056-6.055-19.563-15.371-37.263-22.824-55.429-1.863-4.658-1.397-9.316-1.397-14.44 2.329 0.932 4.658 0.466 4.192-2.794-2.329-15.371-7.918-27.016-13.974-38.195 3.261-15.837 3.726-34.469 11.179-48.443 6.521-12.576 18.632-19.098 27.016-29.811 2.795-3.726 2.795-8.85 5.59-12.11 9.316-9.316 18.632-19.098 28.879-27.482 4.658-3.726 10.247 0 17.234-1.397 2.329-8.384 11.645-15.837 20.495-13.508 3.726 0.932 11.179-8.85 13.508-9.782 3.726-1.397 1.863 3.726 1.863 6.987 8.85-6.987 20.961-10.713 32.14-14.906" fill="#ffffff" fill-rule="nonzero" stroke="none" stroke-width="1" stroke-linecap="butt" stroke-linejoin="miter" stroke-miterlimit="10" stroke-dasharray="" stroke-dashoffset="0" font-family="none" font-weight="none" font-size="none" text-anchor="none" style="mix-blend-mode: normal" data-fill-palette-color="tertiary"></path></g><g transform="matrix(1,0,0,1,64,155.7474339945534)"><svg viewBox="0 0 192 48.50513201089318" height="48.50513201089318" width="192"><g><svg viewBox="0 0 192 48.50513201089318" height="48.50513201089318" width="192"><g><svg viewBox="0 0 192 48.50513201089318" height="48.50513201089318" width="192"><g><svg viewBox="0 0 192 48.50513201089318" height="48.50513201089318" width="192"><g id="textblocktransform"><svg viewBox="0 0 192 48.50513201089318" height="48.50513201089318" width="192" id="textblock"><g><svg viewBox="0 0 192 35.73960784313726" height="35.73960784313726" width="192"><g transform="matrix(1,0,0,1,0,0)"><svg width="192" viewBox="2.1499999999999995 -35 191.23999999999998 35.6" height="35.73960784313726" data-palette-color="url(#538ac356-cb9c-40a4-9c9e-fadd78a643ee)"></svg></g></svg></g><g transform="matrix(1,0,0,1,0,40.95487437803922)"><svg viewBox="0 0 192 7.550257632853956" height="7.550257632853956" width="192"><g transform="matrix(1,0,0,1,0,0)"><svg width="192" viewBox="2.22 -36.11 952.3 37.45" height="7.550257632853956" data-palette-color="url(#856b3755-1191-43d9-a01f-0bf79f380251)"></svg></g></svg></g></svg></g></svg></g><g></g></svg></g></svg></g></svg></g></svg></g><defs></defs><mask id="235c69fa-7941-42c7-838f-281246b639f2"><g id="SvgjsG1547"><svg viewBox="0 0 320 360" height="360" width="320"><g><svg></svg></g><g><svg viewBox="0 0 320 360" height="360" width="320"><g></g><g transform="matrix(1,0,0,1,64,155.7474339945534)"><svg viewBox="0 0 192 48.50513201089318" height="48.50513201089318" width="192"><g><svg viewBox="0 0 192 48.50513201089318" height="48.50513201089318" width="192"><g><svg viewBox="0 0 192 48.50513201089318" height="48.50513201089318" width="192"><g><svg viewBox="0 0 192 48.50513201089318" height="48.50513201089318" width="192"><g id="SvgjsG1546"><svg viewBox="0 0 192 48.50513201089318" height="48.50513201089318" width="192" id="SvgjsSvg1545"><g><svg viewBox="0 0 192 35.73960784313726" height="35.73960784313726" width="192"><g transform="matrix(1,0,0,1,0,0)"><svg width="192" viewBox="2.1499999999999995 -35 191.23999999999998 35.6" height="35.73960784313726" data-palette-color="url(#538ac356-cb9c-40a4-9c9e-fadd78a643ee)"><path d="M19.35 0L3.55 0 3.55-5.25 18.6-5.25Q20.05-5.25 21.13-5.95 22.2-6.65 22.83-7.78 23.45-8.9 23.45-10.15L23.45-10.15Q23.45-11.5 22.85-12.6 22.25-13.7 21.18-14.35 20.1-15 18.7-15L18.7-15 12.45-15Q9.5-15 7.18-16.23 4.85-17.45 3.5-19.65 2.15-21.85 2.15-24.85L2.15-24.85Q2.15-27.85 3.45-30.13 4.75-32.4 7-33.7 9.25-35 12.1-35L12.1-35 27.15-35 27.15-29.75 12.65-29.75Q11.35-29.75 10.3-29.1 9.25-28.45 8.68-27.4 8.1-26.35 8.1-25.15L8.1-25.15Q8.1-23.9 8.68-22.88 9.25-21.85 10.28-21.23 11.3-20.6 12.6-20.6L12.6-20.6 19-20.6Q22.2-20.6 24.53-19.35 26.85-18.1 28.13-15.9 29.4-13.7 29.4-10.85L29.4-10.85Q29.4-7.5 28.08-5.08 26.75-2.65 24.48-1.33 22.2 0 19.35 0L19.35 0ZM46.55 0L33.95 0 33.95-5.25 45.8-5.25Q47.25-5.25 48.35-5.93 49.45-6.6 50.07-7.75 50.7-8.9 50.7-10.2L50.7-10.2Q50.7-11.55 50.07-12.68 49.45-13.8 48.3-14.5 47.15-15.2 45.65-15.2L45.65-15.2 35.7-15.2 35.7-20.5 45.95-20.5Q47.4-20.5 48.45-21.13 49.5-21.75 50.1-22.8 50.7-23.85 50.7-25.1L50.7-25.1Q50.7-26.35 50.1-27.4 49.5-28.45 48.45-29.1 47.4-29.75 45.95-29.75L45.95-29.75 33.95-29.75 33.95-35 46.7-35Q49.55-35 51.8-33.65 54.05-32.3 55.35-30.08 56.65-27.85 56.65-25.1L56.65-25.1Q56.65-22.85 55.57-20.93 54.5-19 52.65-17.7L52.65-17.7Q53.95-16.9 54.85-15.7 55.75-14.5 56.2-13.1 56.65-11.7 56.65-10.2L56.65-10.2Q56.65-7.45 55.35-5.13 54.05-2.8 51.75-1.4 49.45 0 46.55 0L46.55 0ZM68.45 0L62.7 0 62.7-18.25Q62.7-21.65 64.62-23.58 66.55-25.5 69.95-25.5L69.95-25.5 76.1-25.5 76.1-20.6 71-20.6Q69.8-20.6 69.12-19.9 68.45-19.2 68.45-18L68.45-18 68.45 0ZM101.99 0L96.04 0 96.04-7.7 85.34-7.7Q83.49-7.7 82.02-8.58 80.54-9.45 79.67-10.88 78.79-12.3 78.79-13.95L78.79-13.95Q78.79-14.9 79.04-15.85 79.29-16.8 79.69-17.6L79.69-17.6 89.09-35 95.84-35 85.09-15.5Q84.94-15.15 84.87-14.9 84.79-14.65 84.79-14.3L84.79-14.3Q84.79-13.75 85.12-13.38 85.44-13 86.09-13L86.09-13 96.04-13 96.04-25.2 101.99-25.2 101.99-13 106.64-13 106.64-7.7 101.99-7.7 101.99 0ZM124.04 0L111.44 0 111.44-5.25 123.29-5.25Q124.74-5.25 125.84-5.93 126.94-6.6 127.57-7.75 128.19-8.9 128.19-10.2L128.19-10.2Q128.19-11.55 127.57-12.68 126.94-13.8 125.79-14.5 124.64-15.2 123.14-15.2L123.14-15.2 113.19-15.2 113.19-20.5 123.44-20.5Q124.89-20.5 125.94-21.13 126.99-21.75 127.59-22.8 128.19-23.85 128.19-25.1L128.19-25.1Q128.19-26.35 127.59-27.4 126.99-28.45 125.94-29.1 124.89-29.75 123.44-29.75L123.44-29.75 111.44-29.75 111.44-35 124.19-35Q127.04-35 129.29-33.65 131.54-32.3 132.84-30.08 134.14-27.85 134.14-25.1L134.14-25.1Q134.14-22.85 133.07-20.93 131.99-19 130.14-17.7L130.14-17.7Q131.44-16.9 132.34-15.7 133.24-14.5 133.69-13.1 134.14-11.7 134.14-10.2L134.14-10.2Q134.14-7.45 132.84-5.13 131.54-2.8 129.24-1.4 126.94 0 124.04 0L124.04 0ZM152.54 0.6L152.54 0.6Q148.59 0.6 145.54-1.18 142.49-2.95 140.71-5.98 138.94-9 138.94-12.75L138.94-12.75Q138.94-16.5 140.71-19.53 142.49-22.55 145.54-24.33 148.59-26.1 152.54-26.1L152.54-26.1Q156.44-26.1 159.49-24.33 162.54-22.55 164.31-19.53 166.09-16.5 166.09-12.75L166.09-12.75Q166.09-9 164.31-5.98 162.54-2.95 159.49-1.18 156.44 0.6 152.54 0.6ZM152.54-4.3L152.54-4.3Q154.89-4.3 156.64-5.43 158.39-6.55 159.34-8.47 160.29-10.4 160.29-12.75L160.29-12.75Q160.29-15.1 159.34-17.03 158.39-18.95 156.64-20.08 154.89-21.2 152.54-21.2L152.54-21.2Q150.14-21.2 148.41-20.08 146.69-18.95 145.71-17.03 144.74-15.1 144.74-12.75L144.74-12.75Q144.74-10.4 145.71-8.47 146.69-6.55 148.41-5.43 150.14-4.3 152.54-4.3ZM183.29 0L170.69 0 170.69-5.25 182.54-5.25Q183.99-5.25 185.09-5.93 186.19-6.6 186.81-7.75 187.44-8.9 187.44-10.2L187.44-10.2Q187.44-11.55 186.81-12.68 186.19-13.8 185.04-14.5 183.89-15.2 182.39-15.2L182.39-15.2 172.44-15.2 172.44-20.5 182.69-20.5Q184.14-20.5 185.19-21.13 186.24-21.75 186.84-22.8 187.44-23.85 187.44-25.1L187.44-25.1Q187.44-26.35 186.84-27.4 186.24-28.45 185.19-29.1 184.14-29.75 182.69-29.75L182.69-29.75 170.69-29.75 170.69-35 183.44-35Q186.29-35 188.54-33.65 190.79-32.3 192.09-30.08 193.39-27.85 193.39-25.1L193.39-25.1Q193.39-22.85 192.31-20.93 191.24-19 189.39-17.7L189.39-17.7Q190.69-16.9 191.59-15.7 192.49-14.5 192.94-13.1 193.39-11.7 193.39-10.2L193.39-10.2Q193.39-7.45 192.09-5.13 190.79-2.8 188.49-1.4 186.19 0 183.29 0L183.29 0Z" opacity="1" transform="matrix(1,0,0,1,0,0)" fill="white" class="wordmark-text-0" id="SvgjsPath1544"></path></svg></g></svg></g><g transform="matrix(1,0,0,1,0,40.95487437803922)"><svg viewBox="0 0 192 7.550257632853956" height="7.550257632853956" width="192"><g transform="matrix(1,0,0,1,0,0)"><svg width="192" viewBox="2.22 -36.11 952.3 37.45" height="7.550257632853956" data-palette-color="url(#856b3755-1191-43d9-a01f-0bf79f380251)"></svg></g></svg></g></svg></g></svg></g><g></g></svg></g></svg></g></svg></g></svg></g><defs><mask></mask></defs></svg></g></mask><linearGradient x1="0.054" x2="0.941" y1="0.5" y2="0.5" id="538ac356-cb9c-40a4-9c9e-fadd78a643ee"><stop stop-color="#0f3054" offset="0"></stop><stop stop-color="#3b8dcb" offset="0.498"></stop><stop stop-color="#0f3054" offset="1"></stop></linearGradient><rect width="320.00000000000006" height="360" fill="#ffffff" mask="url(#235c69fa-7941-42c7-838f-281246b639f2)" data-fill-palette-color="primary"></rect><mask id="87d639f7-68f9-4811-a3fc-0e4151642f1c"><g id="SvgjsG1555"><svg viewBox="0 0 320 360" height="360" width="320"><g><svg></svg></g><g><svg viewBox="0 0 320 360" height="360" width="320"><g></g><g transform="matrix(1,0,0,1,64,155.7474339945534)"><svg viewBox="0 0 192 48.50513201089318" height="48.50513201089318" width="192"><g><svg viewBox="0 0 192 48.50513201089318" height="48.50513201089318" width="192"><g><svg viewBox="0 0 192 48.50513201089318" height="48.50513201089318" width="192"><g><svg viewBox="0 0 192 48.50513201089318" height="48.50513201089318" width="192"><g id="SvgjsG1554"><svg viewBox="0 0 192 48.50513201089318" height="48.50513201089318" width="192" id="SvgjsSvg1553"><g><svg viewBox="0 0 192 35.73960784313726" height="35.73960784313726" width="192"><g transform="matrix(1,0,0,1,0,0)"><svg width="192" viewBox="2.1499999999999995 -35 191.23999999999998 35.6" height="35.73960784313726" data-palette-color="url(#538ac356-cb9c-40a4-9c9e-fadd78a643ee)"></svg></g></svg></g><g transform="matrix(1,0,0,1,0,40.95487437803922)"><svg viewBox="0 0 192 7.550257632853956" height="7.550257632853956" width="192"><g transform="matrix(1,0,0,1,0,0)"><svg width="192" viewBox="2.22 -36.11 952.3 37.45" height="7.550257632853956" data-palette-color="url(#856b3755-1191-43d9-a01f-0bf79f380251)"><path d="M4.32-1.76L4.32-1.76Q3.47-2.25 2.84-2.78 2.22-3.32 2.22-3.93L2.22-3.93Q2.22-5.1 3.22-5.1L3.22-5.1Q3.88-5.1 4.69-4.37 5.49-3.64 6.49-3.09 7.5-2.54 8.67-2.15L8.67-2.15Q11.08-1.34 13.13-1.34 15.19-1.34 16.3-1.61 17.41-1.88 18.16-2.34L18.16-2.34Q19.78-3.34 19.78-4.91L19.78-4.91Q19.78-6.35 18.38-7.81L18.38-7.81Q17.21-9.06 15.06-10.79L15.06-10.79 10.89-14.06Q4.61-18.9 3.49-22.9L3.49-22.9Q3.1-24.29 3.1-26 3.1-27.71 3.87-29.37 4.64-31.03 6.15-32.28L6.15-32.28Q9.4-34.99 14.99-34.99L14.99-34.99Q17.85-34.99 20.12-34.14 22.39-33.3 23.22-32.64 24.05-31.98 24.05-31.45L24.05-31.45Q24.05-30.32 23.12-30.32L23.12-30.32Q22.58-30.32 21.97-30.86 21.36-31.4 20.62-31.8 19.87-32.2 18.92-32.52L18.92-32.52Q16.87-33.2 14.89-33.2L14.89-33.2Q11.25-33.2 11.25-30.81L11.25-30.81Q11.25-29.81 11.91-28.96L11.91-28.96Q13.09-27.47 16.49-24.69 19.9-21.92 21.96-19.85 24.02-17.77 25.1-16.11L25.1-16.11Q26.81-13.5 26.81-10.68 26.81-7.86 25.82-5.9 24.83-3.93 23.05-2.51L23.05-2.51Q19.29 0.46 13.72 0.46 8.15 0.46 4.32-1.76ZM42.5-1Q41.87 0.27 40.82 0.27 39.77 0.27 39.77-0.81L39.77-0.81Q39.77-1.46 40.4-2.25L40.4-2.25Q41.67-3.76 42.82-5.74L42.82-5.74 44.06-7.96 29.56-34.55 43.8-34.55 50.78-19.82 57.03-30.93Q57.71-32.2 58.2-33.51 58.69-34.81 59.49-34.81L59.49-34.81Q60.5-34.81 60.5-33.81L60.5-33.81Q60.5-33.23 60.06-32.47L60.06-32.47 43.36-2.69Q43.09-2.2 42.92-1.88L42.92-1.88 42.5-1ZM65.6-1.76L65.6-1.76Q64.74-2.25 64.12-2.78 63.5-3.32 63.5-3.93L63.5-3.93Q63.5-5.1 64.5-5.1L64.5-5.1Q65.16-5.1 65.96-4.37 66.77-3.64 67.77-3.09 68.77-2.54 69.94-2.15L69.94-2.15Q72.36-1.34 74.41-1.34 76.46-1.34 77.57-1.61 78.68-1.88 79.44-2.34L79.44-2.34Q81.05-3.34 81.05-4.91L81.05-4.91Q81.05-6.35 79.66-7.81L79.66-7.81Q78.49-9.06 76.34-10.79L76.34-10.79 72.16-14.06Q65.89-18.9 64.77-22.9L64.77-22.9Q64.37-24.29 64.37-26 64.37-27.71 65.14-29.37 65.91-31.03 67.43-32.28L67.43-32.28Q70.67-34.99 76.26-34.99L76.26-34.99Q79.12-34.99 81.39-34.14 83.66-33.3 84.49-32.64 85.32-31.98 85.32-31.45L85.32-31.45Q85.32-30.32 84.39-30.32L84.39-30.32Q83.86-30.32 83.25-30.86 82.64-31.4 81.89-31.8 81.15-32.2 80.2-32.52L80.2-32.52Q78.14-33.2 76.17-33.2L76.17-33.2Q72.53-33.2 72.53-30.81L72.53-30.81Q72.53-29.81 73.19-28.96L73.19-28.96Q74.36-27.47 77.77-24.69 81.17-21.92 83.23-19.85 85.3-17.77 86.37-16.11L86.37-16.11Q88.08-13.5 88.08-10.68 88.08-7.86 87.09-5.9 86.1-3.93 84.32-2.51L84.32-2.51Q80.56 0.46 75 0.46 69.43 0.46 65.6-1.76ZM119.72-33.91L119.72-33.91Q119.72-32.79 117.35-32.79L117.35-32.79 111.69-32.79 111.69 0 99.19 0 99.19-32.79 95.52-32.79Q93.64-32.79 92.94-32.62L92.94-32.62Q92.01-32.42 91.59-32.42L91.59-32.42Q90.35-32.42 90.35-33.4L90.35-33.4Q90.35-34.55 92.77-34.55L92.77-34.55 114.54-34.55Q116.23-34.55 117.03-34.69L117.03-34.69Q118.01-34.86 118.5-34.86L118.5-34.86Q119.72-34.86 119.72-33.91ZM146.3-2.1L146.3-2.1Q147.55-2.1 147.55-1.12L147.55-1.12Q147.55-0.68 147.01-0.34 146.47 0 145.16 0L145.16 0 124.48 0 124.48-34.55Q134.1-34.55 143.72-34.55L143.72-34.55 145.72-34.62Q147.55-34.62 147.55-33.54L147.55-33.54Q147.55-33.13 147.24-32.78 146.94-32.42 146.55-32.42L146.55-32.42Q145.91-32.42 145.2-32.57L145.2-32.57Q144.16-32.79 142.32-32.79L142.32-32.79 136.93-32.79 136.93-25.34 141.37-25.34Q141.37-25.34 144.37-25.46L144.37-25.46Q144.91-25.46 145.29-25.21 145.67-24.95 145.67-24.49L145.67-24.49Q145.67-23.46 144.3-23.46L144.3-23.46 143.25-23.49Q142.45-23.56 141.91-23.56L141.91-23.56 136.93-23.56 136.93-1.78 142.32-1.78Q144.13-1.78 144.89-1.93L144.89-1.93Q145.79-2.1 146.3-2.1ZM150.96 0.37Q150.5 0.32 150.26-0.05 150.01-0.42 150.06-0.85L150.06-0.85Q150.18-1.61 150.52-2.25 150.87-2.88 151.03-3.2 151.18-3.52 151.35-3.91L151.35-3.91 152.28-6.05 162.32-36.11 173.11-15.26 183.58-36.11 196.11 0 183 0 176.94-18.65 167.57 0.88 157.7-16.7 154.28-6.03Q153.48-4.25 153.14-3 152.8-1.76 152.58-1.07L152.58-1.07Q152.09 0.46 150.96 0.37L150.96 0.37ZM240.31-19.21L240.31-19.21Q240.31-18.29 238.63-18.29L238.63-18.29Q238.12-18.29 237.6-18.31L237.6-18.31 236.55-18.41Q234.89-18.51 233.97-18.51L233.97-18.51Q236.82-16.89 237.73-12.77L237.73-12.77Q238-11.55 238-9.9 238-8.25 237.03-6.3 236.07-4.35 234.33-2.83L234.33-2.83Q230.52 0.46 224.74 0.46L224.74 0.46Q218.63 0.46 215.07-2.42L215.07-2.42Q211.38-5.4 211.38-10.55L211.38-10.55Q211.38-13.55 213.36-16.04L213.36-16.04Q215.36-18.55 218.73-19.63L218.73-19.63Q214.95-21.19 213.68-24.71L213.68-24.71Q213.29-25.78 213.29-27.25 213.29-28.71 214.15-30.18 215.02-31.64 216.66-32.71L216.66-32.71Q220.12-34.99 225.93-34.99L225.93-34.99Q227.38-34.99 228.77-34.83 230.16-34.67 231.23-34.36 232.31-34.06 232.99-33.69L232.99-33.69Q234.33-32.98 234.33-32.08 234.33-31.18 233.31-31.18L233.31-31.18Q232.75-31.18 232.34-31.53 231.94-31.88 231.28-32.3L231.28-32.3Q229.77-33.25 227.24-33.25 224.71-33.25 223.98-33.13L223.98-33.13 223.98-1.49Q226.59-0.98 228.97-1.79 231.35-2.61 232.84-3.81L232.84-3.81Q236.12-6.45 236.12-10.08L236.12-10.08Q236.12-13.87 234.19-16.21L234.19-16.21Q232.31-18.46 229.38-18.46L229.38-18.46 228.82-18.46Q227.01-18.46 227.01-19.6L227.01-19.6Q227.01-20.41 228.28-20.41L228.28-20.41 230.72-20.24Q235.9-20.24 237.62-20.39 239.34-20.53 239.83-20.15 240.31-19.78 240.31-19.21ZM260.21-19.48L260.21-3.49 260.28-1.05Q260.28-0.42 259.94-0.07 259.6 0.27 259.12 0.27 258.64 0.27 258.33-0.05 258.01-0.37 258.01-0.74 258.01-1.12 258.07-1.45 258.13-1.78 258.18-2.2L258.18-2.2Q258.3-2.91 258.3-5.74L258.3-5.74 258.3-36.11 284.84-15.06 284.84-29.61Q284.84-31.27 284.74-31.98L284.74-31.98Q284.62-33.13 284.62-33.59L284.62-33.59Q284.62-34.81 285.67-34.81L285.67-34.81Q286.09-34.81 286.46-34.52 286.84-34.23 286.84-33.67L286.84-33.67 286.84-32.81 286.75-29.27 286.75 1.34 260.21-19.48ZM316.89-2.1L316.89-2.1Q318.14-2.1 318.14-1.12L318.14-1.12Q318.14-0.68 317.6-0.34 317.06 0 315.75 0L315.75 0 295.07 0 295.07-34.55Q304.69-34.55 314.31-34.55L314.31-34.55 316.31-34.62Q318.14-34.62 318.14-33.54L318.14-33.54Q318.14-33.13 317.83-32.78 317.53-32.42 317.14-32.42L317.14-32.42Q316.5-32.42 315.8-32.57L315.8-32.57Q314.75-32.79 312.91-32.79L312.91-32.79 307.52-32.79 307.52-25.34 311.96-25.34Q311.96-25.34 314.97-25.46L314.97-25.46Q315.5-25.46 315.88-25.21 316.26-24.95 316.26-24.49L316.26-24.49Q316.26-23.46 314.89-23.46L314.89-23.46 313.84-23.49Q313.04-23.56 312.5-23.56L312.5-23.56 307.52-23.56 307.52-1.78 312.91-1.78Q314.72-1.78 315.48-1.93L315.48-1.93Q316.38-2.1 316.89-2.1ZM349.75-33.91L349.75-33.91Q349.75-32.79 347.38-32.79L347.38-32.79 341.72-32.79 341.72 0 329.22 0 329.22-32.79 325.56-32.79Q323.68-32.79 322.97-32.62L322.97-32.62Q322.04-32.42 321.63-32.42L321.63-32.42Q320.38-32.42 320.38-33.4L320.38-33.4Q320.38-34.55 322.8-34.55L322.8-34.55 344.58-34.55Q346.26-34.55 347.07-34.69L347.07-34.69Q348.04-34.86 348.53-34.86L348.53-34.86Q349.75-34.86 349.75-33.91ZM397.75-33.74L397.75-33.74Q397.75-33.37 397.58-32.84L397.58-32.84Q396.99-31.25 396.53-30.08L396.53-30.08 383.59 1.34 374.38-19.21 364.84 1.34 350.39-34.55 363.76-34.55 370.62-16.26 379.93-36.11 388.59-16.31 394.7-30.64Q395.01-31.45 395.23-32.23L395.23-32.23 395.65-33.72Q395.92-34.81 396.83-34.81 397.75-34.81 397.75-33.74ZM406.46-4.41Q404.04-6.76 402.62-10.12 401.19-13.48 401.19-17.44 401.19-21.41 402.54-24.57 403.9-27.73 406.29-30.05L406.29-30.05Q411.42-34.99 419.16-34.99L419.16-34.99Q426.85-34.99 431.75-30.13L431.75-30.13Q436.74-25.2 436.74-17.33L436.74-17.33Q436.74-9.5 431.63-4.44L431.63-4.44Q428.43-1.32 423.77-0.12L423.77-0.12Q421.45 0.46 418.39 0.46 415.32 0.46 412.1-0.79 408.88-2.05 406.46-4.41ZM419.13-33.2L419.13-33.2Q417.79-33.2 416.62-33.01L416.62-33.01 416.62-1.51Q417.74-1.32 419.13-1.32L419.13-1.32Q425.65-1.32 430.12-5.66L430.12-5.66Q434.78-10.18 434.78-17.33L434.78-17.33Q434.78-24.15 430.41-28.66L430.41-28.66Q425.99-33.2 419.13-33.2ZM460.15-11.84L460.15-11.84 462.15-11.69Q466.44-11.69 469.45-14.7L469.45-14.7Q472.45-17.7 472.45-22.17L472.45-22.17Q472.45-28.03 467.3-30.86L467.3-30.86Q464.47-32.42 461.24-32.67L461.24-32.67Q459.88-32.79 458.71-32.79L458.71-32.79 457.05-32.79Q456.53-32.79 456.14-32.76L456.14-32.76 456.14 0 443.69 0 443.69-34.55Q449.4-34.55 452.94-34.55 456.48-34.55 457.56-34.52 458.63-34.5 459.47-34.46 460.32-34.42 461.05-34.38L461.05-34.38Q462.12-34.28 464.09-33.91 466.05-33.54 467.98-32.52 469.91-31.49 471.3-29.98L471.3-29.98Q474.31-26.76 474.31-22.31L474.31-22.31Q474.31-17.92 471.52-14.55L471.52-14.55Q468.67-11.11 463.91-10.11L463.91-10.11Q466.18-3.08 469.69-1.71L469.69-1.71Q470.77-1.29 471.84-1.29L471.84-1.29 473.77-1.76Q474.67-1.76 474.67-0.83L474.67-0.83Q474.67 0.46 471.64 0.46L471.64 0.46Q469.45 0.46 467.62-0.76L467.62-0.76Q464.76-2.47 462.76-7.4L462.76-7.4 462.05-9.13Q461.88-9.55 461.74-9.64 461.61-9.74 461.28-9.74 460.95-9.74 460.71-9.69L460.71-9.69 460.12-9.67Q459.14-9.67 458.79-10.03 458.44-10.4 458.44-10.79L458.44-10.79Q458.44-11.84 460.15-11.84ZM480.33 0L480.33-34.55 492.78-34.55 492.78-24.44 501.48-31.01Q503.31-32.4 504.14-33.28 504.97-34.16 505.17-34.34 505.38-34.52 505.55-34.62L505.55-34.62Q505.85-34.81 506.3-34.81 506.75-34.81 507.02-34.56 507.29-34.3 507.29-34 507.29-33.69 507.21-33.48 507.14-33.28 506.92-33.01L506.92-33.01Q506.43-32.42 505.07-31.37L505.07-31.37 499.6-27.22 508.75-4.83Q509.02-4.2 509.26-3.71L509.26-3.71 509.65-2.83 510.09-2Q510.27-1.66 510.39-1.34 510.51-1.03 510.48-0.73 510.46-0.44 510.31-0.2L510.31-0.2Q509.97 0.34 509.48 0.34L509.48 0.34Q508.8 0.34 508.46-0.05L508.46-0.05Q508.02-0.59 507.8-1.25L507.8-1.25 507.36-2.61Q507.14-3.3 506.77-4.25L506.77-4.25 497.91-25.95 492.78-22.07 492.78 0 480.33 0ZM539.87-4.35L533.04-4.35Q528.57-4.35 526.94-4.42L526.94-4.42 526.23-2.73Q525.91-2.03 525.64-1.25L525.64-1.25Q525.08 0.27 524.08 0.27L524.08 0.27Q523.61 0.27 523.32-0.02 523.03-0.32 523.03-0.63L523.03-0.63Q523.03-1.17 523.49-1.83L523.49-1.83Q524.23-2.86 524.93-4.52L524.93-4.52Q522.83-4.71 522.83-5.74 522.83-6.76 524.03-6.76L524.03-6.76Q524.76-6.76 525.74-6.52L525.74-6.52 537.92-36.11 554.62 0 541.9 0 539.87-4.35ZM532.97-19.29L527.72-6.32Q530.06-6.13 531.92-6.13L531.92-6.13 539.07-6.13 532.97-19.29ZM560.01 0L560.01-34.55 570.17-34.55Q577.27-34.55 580.59-33.54L580.59-33.54Q584.38-32.37 586.44-30.54 588.5-28.71 589.68-26.76L589.68-26.76Q592.07-22.78 592.07-17.72L592.07-17.72Q592.07-9.77 586.36-4.83L586.36-4.83Q582.3-1.29 576.81-0.46L576.81-0.46Q573.76 0 568.27 0L568.27 0 560.01 0ZM572.46-32.69L572.46-2.03Q572.86-2 573.17-2L573.17-2 573.73-2Q580.35-2 585.04-6.13L585.04-6.13Q589.99-10.47 589.99-17.68L589.99-17.68Q589.99-22.22 587.82-25.85L587.82-25.85Q584.67-31.15 577.86-32.28L577.86-32.28Q575.64-32.64 572.46-32.69L572.46-32.69ZM595.41 0.37Q594.95 0.32 594.7-0.05 594.46-0.42 594.51-0.85L594.51-0.85Q594.63-1.61 594.97-2.25 595.31-2.88 595.47-3.2 595.63-3.52 595.8-3.91L595.8-3.91 596.73-6.05 606.76-36.11 617.56-15.26 628.03-36.11 640.55 0 627.44 0 621.39-18.65 612.01 0.88 602.15-16.7 598.73-6.03Q597.93-4.25 597.58-3 597.24-1.76 597.02-1.07L597.02-1.07Q596.53 0.46 595.41 0.37L595.41 0.37ZM645.07 0L645.07-34.55 657.52-34.55 657.52 0 645.07 0ZM667.92-19.48L667.92-3.49 667.99-1.05Q667.99-0.42 667.65-0.07 667.31 0.27 666.83 0.27 666.35 0.27 666.04-0.05 665.72-0.37 665.72-0.74 665.72-1.12 665.78-1.45 665.84-1.78 665.89-2.2L665.89-2.2Q666.01-2.91 666.01-5.74L666.01-5.74 666.01-36.11 692.55-15.06 692.55-29.61Q692.55-31.27 692.45-31.98L692.45-31.98Q692.33-33.13 692.33-33.59L692.33-33.59Q692.33-34.81 693.38-34.81L693.38-34.81Q693.8-34.81 694.17-34.52 694.55-34.23 694.55-33.67L694.55-33.67 694.55-32.81 694.45-29.27 694.45 1.34 667.92-19.48ZM702.78 0L702.78-34.55 715.23-34.55 715.23 0 702.78 0ZM723.43-1.76L723.43-1.76Q722.57-2.25 721.95-2.78 721.33-3.32 721.33-3.93L721.33-3.93Q721.33-5.1 722.33-5.1L722.33-5.1Q722.99-5.1 723.8-4.37 724.6-3.64 725.6-3.09 726.6-2.54 727.77-2.15L727.77-2.15Q730.19-1.34 732.24-1.34 734.29-1.34 735.4-1.61 736.51-1.88 737.27-2.34L737.27-2.34Q738.88-3.34 738.88-4.91L738.88-4.91Q738.88-6.35 737.49-7.81L737.49-7.81Q736.32-9.06 734.17-10.79L734.17-10.79 730-14.06Q723.72-18.9 722.6-22.9L722.6-22.9Q722.21-24.29 722.21-26 722.21-27.71 722.98-29.37 723.75-31.03 725.26-32.28L725.26-32.28Q728.51-34.99 734.1-34.99L734.1-34.99Q736.95-34.99 739.22-34.14 741.5-33.3 742.33-32.64 743.16-31.98 743.16-31.45L743.16-31.45Q743.16-30.32 742.23-30.32L742.23-30.32Q741.69-30.32 741.08-30.86 740.47-31.4 739.73-31.8 738.98-32.2 738.03-32.52L738.03-32.52Q735.98-33.2 734-33.2L734-33.2Q730.36-33.2 730.36-30.81L730.36-30.81Q730.36-29.81 731.02-28.96L731.02-28.96Q732.19-27.47 735.6-24.69 739-21.92 741.07-19.85 743.13-17.77 744.21-16.11L744.21-16.11Q745.91-13.5 745.91-10.68 745.91-7.86 744.93-5.9 743.94-3.93 742.15-2.51L742.15-2.51Q738.39 0.46 732.83 0.46 727.26 0.46 723.43-1.76ZM777.55-33.91L777.55-33.91Q777.55-32.79 775.18-32.79L775.18-32.79 769.52-32.79 769.52 0 757.02 0 757.02-32.79 753.36-32.79Q751.48-32.79 750.77-32.62L750.77-32.62Q749.84-32.42 749.43-32.42L749.43-32.42Q748.18-32.42 748.18-33.4L748.18-33.4Q748.18-34.55 750.6-34.55L750.6-34.55 772.38-34.55Q774.06-34.55 774.87-34.69L774.87-34.69Q775.84-34.86 776.33-34.86L776.33-34.86Q777.55-34.86 777.55-33.91ZM799.18-11.84L799.18-11.84 801.18-11.69Q805.48-11.69 808.48-14.7L808.48-14.7Q811.49-17.7 811.49-22.17L811.49-22.17Q811.49-28.03 806.33-30.86L806.33-30.86Q803.5-32.42 800.28-32.67L800.28-32.67Q798.91-32.79 797.74-32.79L797.74-32.79 796.08-32.79Q795.57-32.79 795.18-32.76L795.18-32.76 795.18 0 782.73 0 782.73-34.55Q788.44-34.55 791.98-34.55 795.52-34.55 796.59-34.52 797.67-34.5 798.51-34.46 799.35-34.42 800.08-34.38L800.08-34.38Q801.16-34.28 803.12-33.91 805.09-33.54 807.02-32.52 808.95-31.49 810.34-29.98L810.34-29.98Q813.34-26.76 813.34-22.31L813.34-22.31Q813.34-17.92 810.56-14.55L810.56-14.55Q807.7-11.11 802.94-10.11L802.94-10.11Q805.21-3.08 808.73-1.71L808.73-1.71Q809.8-1.29 810.87-1.29L810.87-1.29 812.8-1.76Q813.71-1.76 813.71-0.83L813.71-0.83Q813.71 0.46 810.68 0.46L810.68 0.46Q808.48 0.46 806.65-0.76L806.65-0.76Q803.79-2.47 801.79-7.4L801.79-7.4 801.08-9.13Q800.91-9.55 800.78-9.64 800.65-9.74 800.32-9.74 799.99-9.74 799.74-9.69L799.74-9.69 799.16-9.67Q798.18-9.67 797.83-10.03 797.47-10.4 797.47-10.79L797.47-10.79Q797.47-11.84 799.18-11.84ZM832.31-4.35L825.47-4.35Q821-4.35 819.37-4.42L819.37-4.42 818.66-2.73Q818.34-2.03 818.07-1.25L818.07-1.25Q817.51 0.27 816.51 0.27L816.51 0.27Q816.05 0.27 815.76-0.02 815.46-0.32 815.46-0.63L815.46-0.63Q815.46-1.17 815.93-1.83L815.93-1.83Q816.66-2.86 817.37-4.52L817.37-4.52Q815.27-4.71 815.27-5.74 815.27-6.76 816.46-6.76L816.46-6.76Q817.2-6.76 818.17-6.52L818.17-6.52 830.35-36.11 847.05 0 834.33 0 832.31-4.35ZM825.4-19.29L820.15-6.32Q822.49-6.13 824.35-6.13L824.35-6.13 831.5-6.13 825.4-19.29ZM877.52-33.91L877.52-33.91Q877.52-32.79 875.15-32.79L875.15-32.79 869.49-32.79 869.49 0 856.99 0 856.99-32.79 853.33-32.79Q851.45-32.79 850.74-32.62L850.74-32.62Q849.81-32.42 849.4-32.42L849.4-32.42Q848.15-32.42 848.15-33.4L848.15-33.4Q848.15-34.55 850.57-34.55L850.57-34.55 872.34-34.55Q874.03-34.55 874.83-34.69L874.83-34.69Q875.81-34.86 876.3-34.86L876.3-34.86Q877.52-34.86 877.52-33.91ZM886.31-4.41Q883.89-6.76 882.46-10.12 881.03-13.48 881.03-17.44 881.03-21.41 882.39-24.57 883.74-27.73 886.14-30.05L886.14-30.05Q891.26-34.99 899-34.99L899-34.99Q906.69-34.99 911.6-30.13L911.6-30.13Q916.58-25.2 916.58-17.33L916.58-17.33Q916.58-9.5 911.48-4.44L911.48-4.44Q908.28-1.32 903.62-0.12L903.62-0.12Q901.3 0.46 898.23 0.46 895.17 0.46 891.95-0.79 888.72-2.05 886.31-4.41ZM898.98-33.2L898.98-33.2Q897.64-33.2 896.46-33.01L896.46-33.01 896.46-1.51Q897.59-1.32 898.98-1.32L898.98-1.32Q905.5-1.32 909.96-5.66L909.96-5.66Q914.63-10.18 914.63-17.33L914.63-17.33Q914.63-24.15 910.26-28.66L910.26-28.66Q905.84-33.2 898.98-33.2ZM939.99-11.84L939.99-11.84 941.99-11.69Q946.29-11.69 949.29-14.7L949.29-14.7Q952.3-17.7 952.3-22.17L952.3-22.17Q952.3-28.03 947.14-30.86L947.14-30.86Q944.31-32.42 941.09-32.67L941.09-32.67Q939.72-32.79 938.55-32.79L938.55-32.79 936.89-32.79Q936.38-32.79 935.99-32.76L935.99-32.76 935.99 0 923.54 0 923.54-34.55Q929.25-34.55 932.79-34.55 936.33-34.55 937.4-34.52 938.48-34.5 939.32-34.46 940.16-34.42 940.89-34.38L940.89-34.38Q941.97-34.28 943.93-33.91 945.9-33.54 947.83-32.52 949.76-31.49 951.15-29.98L951.15-29.98Q954.15-26.76 954.15-22.31L954.15-22.31Q954.15-17.92 951.37-14.55L951.37-14.55Q948.51-11.11 943.75-10.11L943.75-10.11Q946.02-3.08 949.54-1.71L949.54-1.71Q950.61-1.29 951.69-1.29L951.69-1.29 953.61-1.76Q954.52-1.76 954.52-0.83L954.52-0.83Q954.52 0.46 951.49 0.46L951.49 0.46Q949.29 0.46 947.46-0.76L947.46-0.76Q944.61-2.47 942.6-7.4L942.6-7.4 941.9-9.13Q941.72-9.55 941.59-9.64 941.46-9.74 941.13-9.74 940.8-9.74 940.55-9.69L940.55-9.69 939.97-9.67Q938.99-9.67 938.64-10.03 938.28-10.4 938.28-10.79L938.28-10.79Q938.28-11.84 939.99-11.84Z" opacity="1" transform="matrix(1,0,0,1,0,0)" fill="white" class="slogan-text-1" id="SvgjsPath1552"></path></svg></g></svg></g></svg></g></svg></g><g></g></svg></g></svg></g></svg></g></svg></g><defs><mask></mask></defs><mask><g id="SvgjsG1551"><svg viewBox="0 0 320 360" height="360" width="320"><g><svg></svg></g><g><svg viewBox="0 0 320 360" height="360" width="320"><g></g><g transform="matrix(1,0,0,1,64,155.7474339945534)"><svg viewBox="0 0 192 48.50513201089318" height="48.50513201089318" width="192"><g><svg viewBox="0 0 192 48.50513201089318" height="48.50513201089318" width="192"><g><svg viewBox="0 0 192 48.50513201089318" height="48.50513201089318" width="192"><g><svg viewBox="0 0 192 48.50513201089318" height="48.50513201089318" width="192"><g id="SvgjsG1550"><svg viewBox="0 0 192 48.50513201089318" height="48.50513201089318" width="192" id="SvgjsSvg1549"><g><svg viewBox="0 0 192 35.73960784313726" height="35.73960784313726" width="192"><g transform="matrix(1,0,0,1,0,0)"><svg width="192" viewBox="2.1499999999999995 -35 191.23999999999998 35.6" height="35.73960784313726" data-palette-color="url(#538ac356-cb9c-40a4-9c9e-fadd78a643ee)"></svg></g></svg></g><g transform="matrix(1,0,0,1,0,40.95487437803922)"><svg viewBox="0 0 192 7.550257632853956" height="7.550257632853956" width="192"><g transform="matrix(1,0,0,1,0,0)"><svg width="192" viewBox="2.22 -36.11 952.3 37.45" height="7.550257632853956" data-palette-color="url(#856b3755-1191-43d9-a01f-0bf79f380251)"></svg></g></svg></g></svg></g></svg></g><g></g></svg></g></svg></g></svg></g></svg></g><defs><mask></mask></defs></svg></g></mask></svg></g></mask><linearGradient x1="0.054" x2="0.941" y1="0.5" y2="0.5" id="856b3755-1191-43d9-a01f-0bf79f380251"><stop stop-color="#0f3054" offset="0"></stop><stop stop-color="#3b8dcb" offset="0.498"></stop><stop stop-color="#0f3054" offset="1"></stop></linearGradient><rect width="320.0000000000001" height="360" fill="#ffffff" mask="url(#87d639f7-68f9-4811-a3fc-0e4151642f1c)" data-fill-palette-color="secondary"></rect><mask id="8e1e2458-bdc6-4c07-9b2c-cf66f6645543"><g id="SvgjsG1584"><svg viewBox="0 0 320 360" height="360" width="320"><g><svg></svg></g><g><svg viewBox="0 0 320 360" height="360" width="320"><g><path d="M20.961 227.22l3.726 4.658-1.863-6.056c-0.466-2.795-3.726 0.466-1.863 1.398M25.153 224.425c1.397 2.329 2.795 4.658 2.795 6.987 0 3.261 2.795 4.658 5.123 5.589-3.261-3.726-5.124-13.974-7.918-12.576M204.017 26.929c7.918 0 15.371-0.932 23.756 0.931 20.495 5.124 37.729 15.371 49.374 29.811l32.606 52.169c1.397 13.042 4.192 27.482 3.726 43.319 3.261 0 2.795-4.658 6.521-5.59-3.726 9.316-5.59 20.961-6.521 34.469-2.329-7.453 0-18.632 0.466-24.687-3.261 5.124-5.124 1.397-5.124-0.932 0.466-3.726-1.397-3.261-2.795-4.658-5.124-4.658-8.384-9.782-12.11-17.7 2.329-6.055 2.795-14.905-4.658-19.563-2.329-1.397-5.124-3.726-6.521-7.453-1.863-5.124-5.124-11.179-4.193-19.097 0.466-2.329-6.987 5.124-11.179 1.863-18.166-12.576-36.332-27.016-58.224-39.127-11.645 0-20.029-4.192-24.221-9.316-3.726-4.658-0.932-10.713 4.658-11.179 3.261 0 6.987-0.932 9.782 0.932 0.466-1.863 2.329-4.192 4.657-4.192M157.904 16.215l0.932 0.466c4.658 0.932 6.987 7.453 12.11 5.124 0 3.261 0.466 6.521-0.466 8.85-1.397 3.726-5.59 3.726-8.85 3.726-31.208-1.863-49.374 11.179-68.471 22.358-5.124 3.261-10.713 5.59-14.906 9.782-20.029 18.632-41.921 35.866-47.045 70.335l-4.192 38.195c-0.466 4.192-5.124 8.384-4.192 13.508l3.26 22.824c-3.261-3.261-5.124 0.932-4.192 2.795 0.466 1.397 2.329 6.055 5.124 1.863 3.726 6.987 7.453 20.495 12.576 26.55 15.837 18.632 36.332 35.4 53.101 52.169 4.192-0.932 7.453-0.932 8.384-3.727 1.397 2.795-1.397 5.59-3.726 6.056 7.453 4.658 15.837 8.85 27.016 9.781 14.44 0.932 27.948 3.261 40.524 6.522 6.521-1.863 13.042-2.795 20.029-3.261 2.329 0 3.726-3.726 6.521-4.658l0.466-4.658c2.795 4.192 2.329-1.397 0.466-4.192 3.261 2.795 4.192 5.124 5.589 6.987 0-1.397 3.726-6.521 3.727-0.466l0.931-6.055c1.397-0.932 1.863 5.124 3.261 0.931 1.397-4.192 4.192-0.932 6.987-2.329-0.932 1.863-0.466 5.59 2.794 3.261l3.727-3.261c2.329 5.59 6.055 3.261 7.918 2.329 20.495-13.042 40.99-28.413 60.553-43.784l-0.466 6.055 2.329-7.453c2.329 2.329 4.192 0.466 5.124-0.931 2.795-4.658 6.521-9.316 12.577-13.508-7.453 20.029-16.303 35.866-27.482 48.908l-4.658 5.59c0 3.261-0.932 7.453-4.658 7.918-1.863 0.466-5.59-0.932-8.384 1.863-1.397 1.863 3.261 5.59-0.466 2.795-3.261-2.329-6.521 0-10.248 0.932-2.795 0.932 1.863 3.726 2.795 5.589 0.932 1.863 1.863 3.726 1.398 6.056l-5.124-5.59c-6.055 3.261-9.782 9.316-14.906 13.974-2.329 1.863-1.397 5.124-1.397 7.918-3.261 0-6.987-0.932-8.85 0.932-1.397 1.863-0.932 4.658-0.932 7.453-4.658-0.466-5.124-7.453-9.315-6.056-4.192 0.932-8.85 1.397-12.577 3.727 2.795 5.59-4.658 2.329-3.726 3.26-6.987-4.192-13.042-7.453-20.495-4.658-15.837-5.124-35.4-2.795-49.84-0.931 0-2.329 0.466-4.658-0.466-5.124-0.932 2.329-3.726 1.397-3.26 1.397-8.85-6.055-17.7-9.782-27.016-14.905-8.384 0.932-16.303-3.261-18.632-5.59-6.521-6.055-13.974-2.795-20.029-4.192-13.042-3.261-17.7-16.769-19.098-26.084-0.932-4.658-4.658-6.521-6.055-6.056-6.055-19.563-15.371-37.263-22.824-55.429-1.863-4.658-1.397-9.316-1.397-14.44 2.329 0.932 4.658 0.466 4.192-2.794-2.329-15.371-7.918-27.016-13.974-38.195 3.261-15.837 3.726-34.469 11.179-48.443 6.521-12.576 18.632-19.098 27.016-29.811 2.795-3.726 2.795-8.85 5.59-12.11 9.316-9.316 18.632-19.098 28.879-27.482 4.658-3.726 10.247 0 17.234-1.397 2.329-8.384 11.645-15.837 20.495-13.508 3.726 0.932 11.179-8.85 13.508-9.782 3.726-1.397 1.863 3.726 1.863 6.987 8.85-6.987 20.961-10.713 32.14-14.906" fill="white" fill-rule="nonzero" stroke="none" stroke-width="1" stroke-linecap="butt" stroke-linejoin="miter" stroke-miterlimit="10" stroke-dasharray="" stroke-dashoffset="0" font-family="none" font-weight="none" font-size="none" text-anchor="none" style="mix-blend-mode: normal"></path></g><g transform="matrix(1,0,0,1,64,155.7474339945534)"><svg viewBox="0 0 192 48.50513201089318" height="48.50513201089318" width="192"><g><svg viewBox="0 0 192 48.50513201089318" height="48.50513201089318" width="192"><g><svg viewBox="0 0 192 48.50513201089318" height="48.50513201089318" width="192"><g><svg viewBox="0 0 192 48.50513201089318" height="48.50513201089318" width="192"><g id="SvgjsG1583"><svg viewBox="0 0 192 48.50513201089318" height="48.50513201089318" width="192" id="SvgjsSvg1582"><g><svg viewBox="0 0 192 35.73960784313726" height="35.73960784313726" width="192"><g transform="matrix(1,0,0,1,0,0)"><svg width="192" viewBox="2.1499999999999995 -35 191.23999999999998 35.6" height="35.73960784313726" data-palette-color="url(#538ac356-cb9c-40a4-9c9e-fadd78a643ee)"></svg></g></svg></g><g transform="matrix(1,0,0,1,0,40.95487437803922)"><svg viewBox="0 0 192 7.550257632853956" height="7.550257632853956" width="192"><g transform="matrix(1,0,0,1,0,0)"><svg width="192" viewBox="2.22 -36.11 952.3 37.45" height="7.550257632853956" data-palette-color="url(#856b3755-1191-43d9-a01f-0bf79f380251)"></svg></g></svg></g></svg></g></svg></g><g></g></svg></g></svg></g></svg></g></svg></g><defs><mask></mask></defs><mask><g id="SvgjsG1581"><svg viewBox="0 0 320 360" height="360" width="320"><g><svg></svg></g><g><svg viewBox="0 0 320 360" height="360" width="320"><g></g><g transform="matrix(1,0,0,1,64,155.7474339945534)"><svg viewBox="0 0 192 48.50513201089318" height="48.50513201089318" width="192"><g><svg viewBox="0 0 192 48.50513201089318" height="48.50513201089318" width="192"><g><svg viewBox="0 0 192 48.50513201089318" height="48.50513201089318" width="192"><g><svg viewBox="0 0 192 48.50513201089318" height="48.50513201089318" width="192"><g id="SvgjsG1580"><svg viewBox="0 0 192 48.50513201089318" height="48.50513201089318" width="192" id="SvgjsSvg1579"><g><svg viewBox="0 0 192 35.73960784313726" height="35.73960784313726" width="192"><g transform="matrix(1,0,0,1,0,0)"><svg width="192" viewBox="2.1499999999999995 -35 191.23999999999998 35.6" height="35.73960784313726" data-palette-color="url(#538ac356-cb9c-40a4-9c9e-fadd78a643ee)"></svg></g></svg></g><g transform="matrix(1,0,0,1,0,40.95487437803922)"><svg viewBox="0 0 192 7.550257632853956" height="7.550257632853956" width="192"><g transform="matrix(1,0,0,1,0,0)"><svg width="192" viewBox="2.22 -36.11 952.3 37.45" height="7.550257632853956" data-palette-color="url(#856b3755-1191-43d9-a01f-0bf79f380251)"></svg></g></svg></g></svg></g></svg></g><g></g></svg></g></svg></g></svg></g></svg></g><defs><mask></mask></defs></svg></g></mask><mask><g id="SvgjsG1577"><svg viewBox="0 0 320 360" height="360" width="320"><g><svg></svg></g><g><svg viewBox="0 0 320 360" height="360" width="320"><g></g><g transform="matrix(1,0,0,1,64,155.7474339945534)"><svg viewBox="0 0 192 48.50513201089318" height="48.50513201089318" width="192"><g><svg viewBox="0 0 192 48.50513201089318" height="48.50513201089318" width="192"><g><svg viewBox="0 0 192 48.50513201089318" height="48.50513201089318" width="192"><g><svg viewBox="0 0 192 48.50513201089318" height="48.50513201089318" width="192"><g id="SvgjsG1576"><svg viewBox="0 0 192 48.50513201089318" height="48.50513201089318" width="192" id="SvgjsSvg1575"><g><svg viewBox="0 0 192 35.73960784313726" height="35.73960784313726" width="192"><g transform="matrix(1,0,0,1,0,0)"><svg width="192" viewBox="2.1499999999999995 -35 191.23999999999998 35.6" height="35.73960784313726" data-palette-color="url(#538ac356-cb9c-40a4-9c9e-fadd78a643ee)"></svg></g></svg></g><g transform="matrix(1,0,0,1,0,40.95487437803922)"><svg viewBox="0 0 192 7.550257632853956" height="7.550257632853956" width="192"><g transform="matrix(1,0,0,1,0,0)"><svg width="192" viewBox="2.22 -36.11 952.3 37.45" height="7.550257632853956" data-palette-color="url(#856b3755-1191-43d9-a01f-0bf79f380251)"></svg></g></svg></g></svg></g></svg></g><g></g></svg></g></svg></g></svg></g></svg></g><defs><mask></mask></defs><mask><g id="SvgjsG1573"><svg viewBox="0 0 320 360" height="360" width="320"><g><svg></svg></g><g><svg viewBox="0 0 320 360" height="360" width="320"><g></g><g transform="matrix(1,0,0,1,64,155.7474339945534)"><svg viewBox="0 0 192 48.50513201089318" height="48.50513201089318" width="192"><g><svg viewBox="0 0 192 48.50513201089318" height="48.50513201089318" width="192"><g><svg viewBox="0 0 192 48.50513201089318" height="48.50513201089318" width="192"><g><svg viewBox="0 0 192 48.50513201089318" height="48.50513201089318" width="192"><g id="SvgjsG1572"><svg viewBox="0 0 192 48.50513201089318" height="48.50513201089318" width="192" id="SvgjsSvg1571"><g><svg viewBox="0 0 192 35.73960784313726" height="35.73960784313726" width="192"><g transform="matrix(1,0,0,1,0,0)"><svg width="192" viewBox="2.1499999999999995 -35 191.23999999999998 35.6" height="35.73960784313726" data-palette-color="url(#538ac356-cb9c-40a4-9c9e-fadd78a643ee)"></svg></g></svg></g><g transform="matrix(1,0,0,1,0,40.95487437803922)"><svg viewBox="0 0 192 7.550257632853956" height="7.550257632853956" width="192"><g transform="matrix(1,0,0,1,0,0)"><svg width="192" viewBox="2.22 -36.11 952.3 37.45" height="7.550257632853956" data-palette-color="url(#856b3755-1191-43d9-a01f-0bf79f380251)"></svg></g></svg></g></svg></g></svg></g><g></g></svg></g></svg></g></svg></g></svg></g><defs><mask></mask></defs></svg></g></mask></svg></g></mask></svg></g></mask><linearGradient x1="0.054" x2="0.941" y1="0.5" y2="0.5" id="6ccd277a-852b-4205-a14f-8fde4bbf6f64"><stop stop-color="#0f3054" offset="0"></stop><stop stop-color="#3b8dcb" offset="0.498"></stop><stop stop-color="#0f3054" offset="1"></stop></linearGradient></svg><rect width="320" height="360" fill="none" stroke="none" visibility="hidden"></rect></g></svg></g></svg>