<?xml version="1.0" standalone="no"?>
<!DOCTYPE svg PUBLIC "-//W3C//DTD SVG 20010904//EN"
 "http://www.w3.org/TR/2001/REC-SVG-20010904/DTD/svg10.dtd">
<svg version="1.0" xmlns="http://www.w3.org/2000/svg"
 width="2000.000000pt" height="2250.000000pt" viewBox="0 0 2000.000000 2250.000000"
 preserveAspectRatio="xMidYMid meet">

<g transform="translate(0.000000,2250.000000) scale(0.100000,-0.100000)"
fill="#000000" stroke="none">
<path d="M9705 21423 c-820 -304 -926 -346 -1164 -459 -225 -108 -462 -248
-658 -390 -22 -16 -23 -15 -23 7 0 13 7 86 16 161 24 204 8 263 -71 260 -74
-3 -98 -22 -402 -314 -155 -147 -272 -239 -361 -281 -69 -32 -85 -33 -262 -7
-152 22 -356 -17 -522 -101 -113 -57 -211 -130 -319 -238 -144 -144 -221 -262
-294 -446 -31 -78 -32 -80 -71 -87 -70 -12 -306 -8 -439 8 -72 8 -184 15 -250
16 -192 0 -256 -27 -448 -189 -349 -295 -699 -627 -1318 -1249 -488 -491 -459
-451 -559 -754 -74 -224 -130 -334 -235 -460 -124 -149 -325 -350 -670 -669
-342 -317 -510 -486 -644 -651 -344 -420 -556 -916 -705 -1647 -45 -221 -92
-499 -156 -933 -58 -392 -89 -585 -126 -781 l-26 -137 88 -163 c399 -743 631
-1375 759 -2064 54 -289 25 -365 -134 -352 -36 2 -74 8 -83 12 -17 7 -18 -9
-18 -251 0 -274 12 -397 50 -532 34 -120 171 -442 623 -1452 397 -890 598
-1389 774 -1921 l65 -197 44 -6 c123 -16 251 -133 306 -279 11 -28 32 -118 48
-200 157 -807 523 -1315 1083 -1502 138 -46 226 -55 538 -55 192 0 290 -4 352
-15 173 -30 322 -102 457 -221 168 -148 424 -267 702 -325 76 -16 152 -23 288
-26 l185 -5 205 -108 c113 -59 313 -163 445 -230 440 -225 644 -338 868 -482
175 -112 186 -118 217 -118 42 1 108 37 129 70 l19 32 16 -23 c13 -19 16 -51
16 -162 l0 -138 33 6 c55 9 503 63 667 79 294 30 556 47 843 53 l287 6 0 754
0 754 -22 -2 c-13 -1 -34 3 -48 8 -35 15 -445 95 -696 137 -412 69 -688 103
-1144 141 -414 35 -580 62 -825 133 -296 86 -707 276 -994 459 l-55 35 36 12
c148 51 252 216 208 331 l-10 27 -26 -38 c-53 -78 -117 -108 -322 -150 -90
-19 -168 -34 -173 -34 -6 0 -110 98 -232 218 -262 256 -398 385 -1057 997
-999 928 -1462 1389 -1920 1910 -260 296 -351 466 -652 1220 -127 317 -236
565 -248 565 -4 0 -19 -15 -33 -34 -33 -42 -89 -69 -126 -61 -73 16 -174 189
-173 297 1 59 20 104 58 138 53 46 125 38 191 -23 13 -11 23 -16 23 -10 0 5
-48 340 -106 744 -81 561 -104 749 -100 799 7 95 47 211 126 365 80 155 112
231 129 301 6 27 72 603 146 1279 75 677 147 1291 160 1365 42 224 112 493
190 725 303 912 837 1694 1763 2581 381 365 1060 986 1155 1056 86 64 192 128
552 337 83 48 292 172 465 275 617 369 789 465 1145 641 660 326 1265 505
1945 575 150 16 416 27 558 24 l112 -2 0 559 c0 307 -3 559 -7 558 -5 0 -75
-25 -158 -56z m-8041 -12973 c42 -37 107 -163 211 -408 42 -100 101 -220 130
-266 l52 -84 -46 22 c-89 42 -115 59 -164 104 -67 63 -87 106 -98 215 -5 51
-17 115 -26 142 -17 55 -81 187 -119 247 -13 21 -24 42 -24 48 0 21 51 9 84
-20z m-243 -55 c59 -177 116 -376 105 -364 -7 8 -58 70 -113 139 -55 69 -107
131 -116 139 -49 40 8 146 75 139 30 -3 35 -8 49 -53z"/>
<path d="M9967 21433 c-4 -3 -7 -246 -7 -540 l0 -533 68 -1 c331 -7 443 16
547 112 91 84 121 216 110 489 -3 90 -7 165 -8 166 -1 1 -29 -5 -63 -13 -114
-28 -211 11 -376 152 -101 85 -203 155 -229 155 -10 0 -19 5 -19 10 0 11 -13
13 -23 3z"/>
<path d="M13140 20826 c-4 -3 -98 -6 -210 -7 -140 -1 -219 -5 -250 -15 -66
-20 -152 -100 -191 -179 -17 -36 -33 -65 -34 -65 -1 0 -27 11 -56 24 -83 38
-189 48 -380 36 -242 -15 -262 -18 -338 -56 -81 -40 -152 -112 -187 -188 -82
-180 -38 -359 129 -530 301 -306 758 -481 1336 -512 l123 -6 222 -128 c712
-410 1202 -738 2531 -1691 678 -487 904 -645 941 -660 47 -18 161 -13 239 11
38 12 136 56 217 96 81 41 154 74 161 74 11 0 13 -29 9 -152 -5 -181 12 -316
64 -504 34 -126 194 -553 244 -654 64 -128 181 -251 344 -361 132 -91 172
-125 232 -202 65 -83 114 -182 146 -292 20 -70 23 -102 23 -255 0 -185 -9
-245 -61 -412 l-24 -77 53 -113 c115 -244 293 -535 432 -707 106 -131 252
-277 324 -325 112 -75 114 -79 121 -214 7 -128 26 -187 74 -231 54 -50 130
-23 202 72 20 26 38 46 40 44 2 -2 -3 -62 -11 -133 -9 -71 -27 -226 -41 -344
-31 -260 -43 -625 -25 -775 13 -113 41 -255 50 -255 3 0 14 96 24 213 59 726
184 1379 346 1811 23 60 40 111 38 112 -2 2 -27 -8 -55 -22 -58 -29 -95 -71
-167 -187 -53 -87 -96 -125 -148 -134 l-35 -5 5 113 c6 133 -11 589 -33 858
-17 215 -52 538 -94 866 -17 127 -46 358 -65 515 -19 157 -39 303 -43 326 -6
28 -320 538 -1027 1670 -1006 1609 -1019 1631 -1140 1769 -449 516 -1068 971
-1751 1288 -508 236 -1081 418 -1485 473 -114 15 -808 33 -819 20z"/>
<path d="M4460 12744 c-209 -55 -382 -225 -434 -429 -34 -137 -29 -289 14
-412 26 -74 99 -182 159 -234 55 -48 205 -123 281 -140 33 -7 176 -15 355 -18
282 -6 302 -8 340 -28 181 -97 217 -351 70 -498 -21 -20 -61 -48 -89 -61 l-51
-24 -507 0 -508 0 0 -165 0 -165 518 0 c591 1 626 4 759 70 141 70 256 206
304 360 34 109 44 259 26 365 -37 207 -167 370 -355 444 -106 42 -187 51 -466
51 -243 0 -270 2 -320 20 -112 42 -180 142 -180 265 0 118 54 208 159 263 l50
27 493 3 492 3 0 159 0 160 -527 -1 c-427 0 -539 -3 -583 -15z"/>
<path d="M6000 12601 l0 -160 413 -3 c395 -3 414 -4 458 -24 154 -71 219 -248
146 -396 -32 -64 -80 -111 -146 -142 -44 -20 -65 -21 -403 -24 l-358 -3 0
-159 0 -158 348 -4 c377 -4 376 -3 464 -65 47 -32 101 -112 118 -176 35 -130
-32 -286 -152 -353 l-53 -29 -417 -3 -418 -3 0 -165 0 -165 453 3 452 4 81 27
c197 66 358 241 410 447 22 84 22 226 0 309 -30 115 -118 246 -204 303 -22 15
-22 15 51 89 163 163 213 376 141 598 -54 165 -209 319 -384 383 -64 23 -71
23 -532 26 l-468 3 0 -160z"/>
<path d="M9447 12738 c-59 -94 -586 -1086 -605 -1137 -19 -50 -25 -86 -26
-151 0 -75 3 -93 31 -152 41 -88 113 -160 201 -201 l67 -32 378 -3 377 -3 0
160 0 160 -326 3 c-312 3 -326 4 -340 23 -24 33 -28 67 -13 110 13 34 595
1102 662 1214 18 30 18 33 3 24 -11 -6 -35 -7 -60 -2 -22 4 -107 8 -188 8
-143 2 -147 1 -161 -21z"/>
<path d="M10860 12600 l0 -160 398 0 c473 0 474 0 562 -88 64 -64 90 -124 90
-207 0 -112 -70 -220 -172 -266 -52 -24 -58 -24 -410 -27 l-358 -3 0 -160 0
-159 314 0 c403 0 444 -8 537 -100 121 -121 119 -322 -5 -446 -84 -83 -86 -83
-553 -85 l-403 -2 0 -164 0 -164 453 3 452 4 80 27 c252 84 435 338 435 603 0
72 -29 192 -63 263 -30 62 -129 176 -170 198 -17 9 -12 16 44 69 76 72 130
154 161 242 29 86 31 245 4 337 -58 194 -203 347 -396 417 -64 23 -71 23 -532
26 l-468 3 0 -161z"/>
<path d="M14580 12600 l0 -159 413 -3 c395 -3 414 -4 458 -24 66 -31 114 -78
146 -142 73 -148 7 -325 -146 -396 -43 -20 -66 -21 -403 -24 l-358 -4 0 -158
0 -158 348 -4 347 -3 55 -26 c201 -96 250 -358 96 -512 -20 -20 -56 -47 -79
-59 -41 -23 -48 -23 -459 -26 l-418 -3 0 -165 0 -165 453 4 c497 4 497 4 627
69 43 22 93 61 146 113 66 65 89 96 122 165 52 111 67 174 66 290 0 106 -18
179 -66 273 -28 56 -122 163 -161 184 -17 9 -12 16 44 69 152 144 212 321 175
522 -43 240 -223 431 -458 487 -51 12 -149 15 -505 15 l-443 0 0 -160z"/>
<path d="M13280 12194 c-327 -63 -563 -272 -661 -584 -21 -66 -24 -95 -24
-240 0 -145 3 -174 23 -240 92 -290 304 -493 591 -566 160 -41 382 -32 529 20
194 69 365 222 458 411 67 137 79 193 79 375 0 182 -12 238 -79 375 -102 205
-287 362 -506 426 -60 17 -107 22 -230 24 -85 2 -166 1 -180 -1z m286 -308
c129 -34 240 -127 297 -248 46 -96 61 -164 60 -273 -1 -222 -100 -393 -277
-481 -68 -33 -86 -38 -175 -42 -169 -8 -277 33 -381 144 -100 108 -143 226
-142 393 1 245 143 449 352 507 61 17 203 17 266 0z"/>
<path d="M8162 12159 c-78 -10 -175 -54 -231 -104 -52 -47 -107 -159 -121
-245 -6 -38 -10 -305 -10 -652 l0 -588 180 0 180 0 0 591 c0 582 0 592 21 629
38 68 60 74 272 78 l187 4 0 149 0 149 -207 -1 c-115 -1 -237 -5 -271 -10z"/>
<path d="M10003 12142 l-43 -3 0 -785 0 -784 150 0 150 0 0 245 0 245 145 0
145 0 0 160 0 160 -145 0 -145 0 0 385 0 386 -107 -3 c-60 -1 -127 -4 -150 -6z"/>
<path d="M6219 10068 l-67 -133 -63 128 c-35 70 -66 127 -69 127 -5 0 -133
-366 -147 -417 -3 -13 -1 -23 4 -23 6 0 25 47 44 105 19 58 36 105 39 105 3 0
32 -49 64 -108 l60 -107 55 118 c31 64 58 117 61 117 3 0 23 -52 43 -115 l38
-115 80 0 c43 0 79 1 79 3 0 1 -33 97 -73 212 -41 116 -76 216 -78 223 -2 7
-34 -47 -70 -120z"/>
<path d="M7230 9975 c0 -139 4 -225 10 -225 5 0 11 53 12 124 l3 124 158 -124
c86 -68 159 -124 162 -124 3 0 5 99 5 221 0 122 -4 218 -9 215 -4 -3 -6 -57
-3 -119 2 -65 1 -117 -5 -120 -5 -3 -82 53 -171 124 l-162 129 0 -225z"/>
<path d="M11819 10068 l-67 -133 -63 128 c-35 70 -66 127 -69 127 -4 0 -135
-378 -148 -427 -2 -7 1 -13 6 -13 5 0 24 47 43 105 19 58 36 105 39 105 3 0
32 -48 65 -107 l59 -108 55 118 c30 64 58 117 62 117 5 0 24 -52 44 -115 l36
-115 80 0 c73 0 80 2 74 18 -6 14 -133 381 -146 420 -2 7 -34 -47 -70 -120z"/>
<path d="M14361 10018 c-52 -127 -80 -182 -93 -186 -20 -5 -25 -22 -7 -22 7 0
8 -7 4 -17 -4 -10 -9 -24 -12 -30 -3 -7 0 -13 6 -13 7 0 17 14 22 30 l11 30
84 0 c83 0 84 0 99 -30 15 -29 17 -30 91 -30 57 0 75 3 71 13 -7 18 -199 432
-201 434 -1 1 -35 -80 -75 -179z m23 -186 c-36 -2 -69 -1 -71 2 -3 3 5 31 17
63 43 108 39 107 82 18 l39 -80 -67 -3z"/>
<path d="M4083 10175 c-65 -28 -87 -113 -44 -173 12 -17 57 -60 101 -96 85
-70 101 -104 61 -126 -32 -16 -104 -12 -146 10 -44 23 -55 24 -55 10 0 -6 19
-20 43 -30 47 -22 130 -26 174 -9 42 16 82 58 89 95 11 59 -12 99 -101 181
-46 42 -87 83 -90 91 -15 39 53 56 109 27 33 -18 46 -19 46 -4 0 16 -65 39
-112 39 -24 -1 -57 -7 -75 -15z"/>
<path d="M4708 10170 c-8 -14 -34 -59 -56 -100 l-41 -75 -42 93 -42 92 -89 0
-89 0 29 -52 c16 -29 57 -104 91 -165 l62 -113 -26 -40 c-26 -41 -31 -60 -16
-60 13 0 243 418 239 432 -3 8 -11 3 -20 -12z"/>
<path d="M4873 10183 c-12 -2 -36 -17 -53 -33 -24 -22 -30 -36 -30 -70 0 -60
20 -90 109 -164 95 -78 106 -94 85 -124 -20 -30 -104 -30 -157 -2 -44 24 -47
24 -47 6 0 -20 73 -46 131 -46 91 0 156 46 166 117 7 56 -13 89 -107 175 -44
40 -82 79 -85 87 -15 38 47 53 112 26 42 -18 43 -18 43 -4 0 27 -97 46 -167
32z"/>
<path d="M5277 10183 c-100 -2 -166 -7 -162 -13 3 -5 28 -6 55 -3 l50 6 2
-209 3 -209 78 -3 77 -3 0 211 0 210 50 0 c28 0 50 5 50 10 0 6 -8 9 -17 8
-10 -1 -94 -4 -186 -5z"/>
<path d="M6745 10179 c-38 -11 -73 -42 -81 -73 -7 -29 18 -81 47 -97 21 -11
21 -11 -8 -25 -36 -18 -63 -62 -63 -104 0 -77 67 -130 162 -130 66 1 115 25
146 70 29 42 25 97 -8 142 l-22 30 36 -5 c20 -3 39 -1 42 4 6 10 4 11 -88 13
-38 0 -68 -2 -68 -6 0 -5 7 -8 15 -8 29 0 71 -28 83 -55 40 -86 -28 -173 -130
-166 -17 1 -18 18 -18 201 l0 200 44 0 c25 0 48 -4 51 -10 8 -12 35 -13 35 -1
0 26 -112 39 -175 20z"/>
<path d="M8182 10183 c-95 -2 -171 -7 -168 -12 3 -4 28 -6 55 -3 l51 5 2 -209
3 -209 72 -3 73 -3 2 208 3 208 48 3 c26 2 47 7 47 13 0 5 -3 8 -7 7 -5 -1
-86 -4 -181 -5z"/>
<path d="M8703 10077 c-29 -62 -56 -113 -60 -114 -4 -2 -26 47 -47 107 l-40
110 -78 0 c-43 0 -78 -3 -78 -7 0 -13 165 -423 170 -423 3 0 29 54 59 120 30
66 57 120 61 120 3 0 30 -54 60 -121 34 -77 56 -116 61 -107 10 19 169 406
169 413 0 3 -4 5 -10 5 -5 0 -10 -5 -10 -10 0 -17 -84 -210 -91 -210 -3 0 -28
50 -54 110 -26 61 -51 112 -54 114 -3 2 -29 -46 -58 -107z"/>
<path d="M9194 10180 c-53 -12 -103 -49 -132 -98 -22 -38 -27 -59 -27 -113 0
-90 37 -152 114 -191 91 -47 185 -33 257 37 87 83 87 223 0 309 -57 57 -129
76 -212 56z m183 -46 c50 -41 75 -92 75 -157 1 -75 -17 -120 -62 -161 -41 -37
-70 -48 -129 -50 l-36 -1 -3 204 -2 203 60 -4 c48 -3 67 -10 97 -34z"/>
<path d="M10732 10149 c-11 -24 -43 -104 -73 -178 -36 -90 -60 -136 -72 -139
-13 -3 -15 -8 -7 -18 8 -9 8 -19 0 -34 -6 -12 -9 -24 -7 -27 3 -3 13 9 22 26
15 31 16 31 99 31 79 0 83 -1 94 -25 11 -23 16 -25 87 -25 41 0 75 1 75 3 0 1
-45 99 -100 217 l-99 214 -19 -45z m-2 -235 c22 -47 40 -88 40 -91 0 -7 -137
1 -145 8 -5 6 56 169 63 169 2 0 21 -39 42 -86z"/>
<path d="M12370 9980 c0 -115 0 -212 0 -215 0 -3 3 -5 7 -5 4 0 6 49 4 110 -1
60 0 114 4 119 5 9 107 -67 306 -227 l29 -23 0 225 c0 139 -4 226 -10 226 -5
0 -11 -53 -12 -125 l-3 -125 -158 125 c-86 69 -160 125 -162 125 -3 0 -5 -94
-5 -210z"/>
<path d="M13163 10183 c-12 -2 -36 -17 -53 -33 -25 -23 -30 -36 -30 -72 1 -60
16 -83 112 -164 83 -71 102 -101 78 -130 -18 -21 -108 -18 -155 6 -47 24 -56
25 -49 6 14 -37 148 -59 211 -35 42 16 82 58 89 95 11 59 -12 99 -101 181 -46
42 -87 83 -90 91 -15 40 59 56 116 26 31 -16 46 -14 35 5 -15 23 -102 36 -163
24z"/>
<path d="M13567 10183 c-92 -2 -166 -7 -163 -12 3 -4 28 -6 55 -3 l51 5 2
-209 3 -209 75 0 75 0 3 208 2 207 51 0 c31 0 48 4 44 10 -3 6 -12 9 -18 8 -7
-1 -88 -4 -180 -5z"/>
<path d="M14823 10183 c-98 -2 -163 -7 -163 -13 0 -6 21 -8 55 -4 l55 7 0
-212 0 -211 80 0 80 0 0 210 0 210 51 0 c31 0 48 4 44 10 -3 6 -14 9 -23 8 -9
-1 -90 -4 -179 -5z"/>
<path d="M15216 10175 c-124 -44 -176 -201 -106 -321 71 -125 260 -141 357
-31 75 86 70 222 -11 303 -61 62 -153 80 -240 49z m169 -24 c128 -58 153 -235
49 -333 -36 -33 -74 -48 -125 -48 l-39 0 0 200 0 200 38 0 c20 0 55 -9 77 -19z"/>
<path d="M5540 9965 l0 -215 129 0 c147 0 205 12 96 20 l-70 5 0 135 0 135 53
3 c69 4 67 22 -4 22 l-55 0 3 48 3 47 62 0 c34 1 65 4 69 8 4 4 -59 7 -139 7
l-147 0 0 -215z"/>
<path d="M7692 9968 l3 -213 128 -3 c73 -1 135 2 145 7 12 8 -2 10 -55 11
l-73 0 0 140 0 140 55 0 c30 0 55 5 55 10 0 6 -25 10 -56 10 l-55 0 3 48 3 47
62 0 c34 1 65 4 69 8 4 4 -59 7 -140 7 l-146 0 2 -212z"/>
<path d="M9570 9970 l0 -210 75 0 75 0 0 205 0 205 38 0 c20 -1 54 -7 75 -14
20 -8 37 -10 37 -5 0 17 -78 29 -187 29 l-113 0 0 -210z"/>
<path d="M10030 9970 l0 -210 75 0 75 0 0 138 0 138 31 23 c17 13 35 19 39 15
5 -5 36 -79 70 -164 66 -163 67 -166 75 -158 3 3 -17 58 -44 124 -27 65 -58
142 -69 170 l-20 51 50 37 c27 21 47 40 44 43 -2 3 -40 -22 -84 -56 -43 -34
-82 -61 -85 -61 -4 0 -7 27 -7 60 l0 60 -75 0 -75 0 0 -210z"/>
<path d="M11030 9970 l0 -210 113 0 c104 0 118 2 168 28 95 48 138 145 109
249 -17 58 -71 114 -126 131 -23 6 -91 12 -153 12 l-111 0 0 -210z m267 179
c70 -22 120 -114 110 -201 -11 -94 -81 -161 -180 -174 l-47 -7 0 203 0 202 43
-7 c23 -3 56 -11 74 -16z"/>
<path d="M12102 9968 l3 -213 73 0 72 0 0 212 0 213 -75 0 -75 0 2 -212z"/>
<path d="M12830 9965 l0 -215 75 0 75 0 0 215 0 215 -75 0 -75 0 0 -215z"/>
<path d="M13840 9965 l0 -215 75 0 75 0 0 211 0 212 56 -7 c70 -8 110 -28 134
-69 52 -85 -8 -197 -106 -197 -23 0 -46 -4 -49 -10 -3 -5 3 -10 14 -10 15 0
28 -14 46 -49 13 -27 35 -57 47 -65 24 -17 88 -22 88 -7 0 5 -14 9 -30 9 -36
-1 -67 25 -87 70 -15 35 -11 52 12 52 24 0 83 59 95 96 16 48 5 98 -31 139
-40 45 -79 55 -221 55 l-118 0 0 -215z"/>
<path d="M15610 9965 l0 -215 75 0 75 0 2 208 3 207 52 -2 c99 -4 153 -52 153
-136 0 -44 -4 -53 -39 -88 -34 -34 -45 -39 -85 -39 -46 0 -62 -13 -27 -23 11
-2 29 -23 40 -45 11 -22 32 -50 47 -61 28 -22 78 -28 89 -11 4 6 -8 10 -29 10
-41 0 -70 24 -91 73 -13 32 -13 32 28 53 115 57 118 213 4 264 -34 16 -65 20
-169 20 l-128 0 0 -215z"/>
<path d="M9848 9905 c-3 -3 -24 -7 -48 -10 -47 -4 -67 -15 -29 -15 19 0 28 -8
37 -33 7 -19 24 -44 39 -58 l27 -24 -20 30 c-11 17 -25 42 -32 58 -11 25 -10
28 21 41 17 8 27 15 21 15 -6 1 -13 -1 -16 -4z"/>
<path d="M19116 7529 c-278 -214 -470 -427 -681 -755 -65 -101 -117 -139 -189
-139 -40 0 -62 6 -94 28 -23 15 -43 27 -45 27 -2 0 -32 -92 -67 -205 -35 -112
-66 -203 -68 -200 -2 2 1 74 8 160 7 86 11 158 9 159 -2 2 -98 -70 -214 -161
-1208 -948 -2343 -1772 -3310 -2403 -259 -169 -339 -213 -420 -235 -128 -33
-242 26 -307 160 -12 25 -25 45 -29 45 -4 0 -52 -39 -106 -86 -130 -114 -168
-142 -210 -150 -77 -15 -119 40 -110 145 2 36 8 74 12 85 7 17 6 17 -15 6 -18
-9 -59 -11 -161 -6 -186 10 -200 1 -258 -146 -40 -99 -61 -100 -112 -2 -33 64
-64 94 -79 77 -4 -4 -15 -60 -24 -123 -9 -63 -22 -144 -29 -180 l-11 -65 -8
64 c-12 104 -56 129 -123 69 -40 -34 -95 -122 -95 -150 0 -10 -3 -18 -7 -18
-5 0 -44 55 -88 122 -49 75 -114 157 -168 213 -49 49 -81 78 -73 64 48 -79 89
-266 67 -308 -17 -30 -29 -27 -76 25 l-42 45 -13 -141 -13 -141 -49 -25 c-28
-14 -92 -68 -152 -129 -57 -57 -118 -111 -134 -119 -20 -10 -94 -21 -209 -31
-349 -30 -676 -83 -964 -156 l-156 -40 -164 41 c-90 23 -168 43 -174 44 -7 2
-8 -92 -4 -278 4 -154 7 -491 8 -748 l1 -468 73 0 c247 0 714 -71 990 -152
l108 -31 107 27 c59 14 148 29 197 32 234 15 516 -76 855 -277 93 -56 114 -64
185 -73 97 -13 168 -7 195 16 25 22 27 81 3 139 -16 40 -15 42 3 56 22 17 107
56 179 83 75 28 216 63 449 110 281 57 274 60 454 -164 90 -112 159 -167 229
-181 l31 -6 4 178 c3 175 4 179 33 238 27 53 37 63 90 90 58 29 64 30 200 29
77 0 173 -4 213 -8 l73 -7 -3 163 c-4 236 -7 230 172 413 80 83 209 220 287
305 213 236 347 356 497 450 l70 43 30 -36 c82 -94 281 -307 288 -307 14 0 9
112 -7 175 -31 119 -89 221 -179 314 -45 47 -92 99 -104 115 -24 32 -29 78 -9
94 6 6 95 38 196 72 278 93 358 92 499 -6 35 -24 65 -44 68 -44 3 0 -10 28
-29 63 -63 114 -58 153 26 211 81 54 145 68 331 70 150 2 165 3 216 27 128 60
195 189 215 411 l7 68 235 282 c130 156 296 364 371 463 450 600 845 1307
1192 2135 92 222 204 510 199 514 -2 2 -44 -27 -93 -65z"/>
</g>
</svg>
